HIERARCHY
ROOT hip
{
  OFFSET 0 0 0
  CHANNELS 6 Xposition Yposition Zposition Zrotation Yrotation Xrotation
  JOINT abdomen
  {
    OFFSET 0 20.6881 -0.73152
    CHANNELS 3 Zrotation Xrotation Yrotation
    JOINT chest
    {
      OFFSET 0 11.7043 -0.48768
      CHANNELS 3 Zrotation Xrotation Yrotation
      JOINT neck
      {
        OFFSET 0 22.1894 -2.19456
        CHANNELS 3 Zrotation Xrotation Yrotation
        JOINT head
        {
          OFFSET -0.24384 7.07133 1.2192
          CHANNELS 3 Zrotation Xrotation Yrotation
          JOINT leftEye
          {
            OFFSET 4.14528 8.04674 8.04672
            CHANNELS 3 Zrotation Xrotation Yrotation
            End Site
            {
              OFFSET 1 0 0
            }
          }
          JOINT rightEye
          {
            OFFSET -3.6576 8.04674 8.04672
            CHANNELS 3 Zrotation Xrotation Yrotation
            End Site
            {
              OFFSET 1 0 0
            }
          }
        }
      }
      JOINT rCollar
      {
        OFFSET -2.68224 19.2634 -4.8768
        CHANNELS 3 Zrotation Xrotation Yrotation
        JOINT rShldr
        {
          OFFSET -8.77824 -1.95073 1.46304
          CHANNELS 3 Zrotation Xrotation Yrotation
          JOINT rForeArm
          {
            OFFSET -28.1742 -1.7115 0.48768
            CHANNELS 3 Zrotation Xrotation Yrotation
            JOINT rHand
            {
              OFFSET -22.5879 0.773209 7.07136
              CHANNELS 3 Zrotation Xrotation Yrotation
              JOINT rThumb1
              {
                OFFSET -1.2192 -0.487915 3.41376
                CHANNELS 3 Zrotation Xrotation Yrotation
                JOINT rThumb2
                {
                  OFFSET -3.37035 -0.52449 3.41376
                  CHANNELS 3 Zrotation Xrotation Yrotation
                  End Site
                  {
                    OFFSET -1.78271 -1.18214 1.43049
                  }
                }
              }
              JOINT rIndex1
              {
                OFFSET -7.75947 0.938293 5.60832
                CHANNELS 3 Zrotation Xrotation Yrotation
                JOINT rIndex2
                {
                  OFFSET -2.54057 -0.884171 1.56538
                  CHANNELS 3 Zrotation Xrotation Yrotation
                  End Site
                  {
                    OFFSET -1.62519 -0.234802 1.16502
                  }
                }
              }
              JOINT rMid1
              {
                OFFSET -8.24714 1.18213 3.41376
                CHANNELS 3 Zrotation Xrotation Yrotation
                JOINT rMid2
                {
                  OFFSET -3.10165 -0.590103 1.0647
                  CHANNELS 3 Zrotation Xrotation Yrotation
                  End Site
                  {
                    OFFSET -2.48547 -0.328903 0.83742
                  }
                }
              }
              JOINT rRing1
              {
                OFFSET -8.82822 0.546677 1.51678
                CHANNELS 3 Zrotation Xrotation Yrotation
                JOINT rRing2
                {
                  OFFSET -2.60934 -0.819778 -0.0198488
                  CHANNELS 3 Zrotation Xrotation Yrotation
                  End Site
                  {
                    OFFSET -2.33842 -0.294052 0.168128
                  }
                }
              }
              JOINT rPinky1
              {
                OFFSET -8.27202 -0.0477905 -0.4584
                CHANNELS 3 Zrotation Xrotation Yrotation
                JOINT rPinky2
                {
                  OFFSET -1.82734 -0.647385 -0.700984
                  CHANNELS 3 Zrotation Xrotation Yrotation
                  End Site
                  {
                    OFFSET -1.69225 -0.51767 -0.607171
                  }
                }
              }
            }
          }
        }
      }
      JOINT lCollar
      {
        OFFSET 2.68224 19.2634 -4.8768
        CHANNELS 3 Zrotation Xrotation Yrotation
        JOINT lShldr
        {
          OFFSET 8.77824 -1.95073 1.46304
          CHANNELS 3 Zrotation Xrotation Yrotation
          JOINT lForeArm
          {
            OFFSET 28.1742 -1.7115 0.48768
            CHANNELS 3 Zrotation Xrotation Yrotation
            JOINT lHand
            {
              OFFSET 22.5879 0.773209 7.07136
              CHANNELS 3 Zrotation Xrotation Yrotation
              JOINT lThumb1
              {
                OFFSET 1.2192 -0.487915 3.41376
                CHANNELS 3 Zrotation Xrotation Yrotation
                JOINT lThumb2
                {
                  OFFSET 3.37035 -0.52449 3.41376
                  CHANNELS 3 Zrotation Xrotation Yrotation
                  End Site
                  {
                    OFFSET 1.78271 -1.18214 1.43049
                  }
                }
              }
              JOINT lIndex1
              {
                OFFSET 7.75947 0.938293 5.60832
                CHANNELS 3 Zrotation Xrotation Yrotation
                JOINT lIndex2
                {
                  OFFSET 2.54057 -0.884171 1.56538
                  CHANNELS 3 Zrotation Xrotation Yrotation
                  End Site
                  {
                    OFFSET 1.62519 -0.234802 1.16502
                  }
                }
              }
              JOINT lMid1
              {
                OFFSET 8.24714 1.18213 3.41376
                CHANNELS 3 Zrotation Xrotation Yrotation
                JOINT lMid2
                {
                  OFFSET 3.10165 -0.590103 1.0647
                  CHANNELS 3 Zrotation Xrotation Yrotation
                  End Site
                  {
                    OFFSET 2.48547 -0.328903 0.83742
                  }
                }
              }
              JOINT lRing1
              {
                OFFSET 8.82822 0.546677 1.51678
                CHANNELS 3 Zrotation Xrotation Yrotation
                JOINT lRing2
                {
                  OFFSET 2.60934 -0.819778 -0.0198488
                  CHANNELS 3 Zrotation Xrotation Yrotation
                  End Site
                  {
                    OFFSET 2.33842 -0.294052 0.168128
                  }
                }
              }
              JOINT lPinky1
              {
                OFFSET 8.27202 -0.0477905 -0.4584
                CHANNELS 3 Zrotation Xrotation Yrotation
                JOINT lPinky2
                {
                  OFFSET 1.82734 -0.647385 -0.700984
                  CHANNELS 3 Zrotation Xrotation Yrotation
                  End Site
                  {
                    OFFSET 1.69225 -0.51767 -0.607171
                  }
                }
              }
            }
          }
        }
      }
    }
  }
  JOINT rButtock
  {
    OFFSET -8.77824 4.35084 1.2192
    CHANNELS 3 Zrotation Xrotation Yrotation
    JOINT rThigh
    {
      OFFSET 0 -1.70687 -2.19456
      CHANNELS 3 Zrotation Xrotation Yrotation
      JOINT rShin
      {
        OFFSET 0 -36.8199 0.73152
        CHANNELS 3 Zrotation Xrotation Yrotation
        JOINT rFoot
        {
          OFFSET 0.73152 -45.1104 -5.12064
          CHANNELS 3 Zrotation Xrotation Yrotation
          End Site
          {
            OFFSET -1.1221 -3.69964 12.103
          }
        }
      }
    }
  }
  JOINT lButtock
  {
    OFFSET 8.77824 4.35084 1.2192
    CHANNELS 3 Zrotation Xrotation Yrotation
    JOINT lThigh
    {
      OFFSET 0 -1.70687 -2.19456
      CHANNELS 3 Zrotation Xrotation Yrotation
      JOINT lShin
      {
        OFFSET 0 -36.8199 0.73152
        CHANNELS 3 Zrotation Xrotation Yrotation
        JOINT lFoot
        {
          OFFSET -0.73152 -45.1104 -5.12064
          CHANNELS 3 Zrotation Xrotation Yrotation
          End Site
          {
            OFFSET 1.1221 -3.69964 12.103
          }
        }
      }
    }
  }
}
MOTION
Frames:	6
Frame Time:	0.00833333
-54.5425 85.6025 -35.0972 -363.267 -15.1733 355.073 10.6531 4.25724 -3.08532 -0.96223 3.52603 -0.825636 2.35685 31.1646 -5.02581 -5.46748 -43.8159 -11.4601 -0.0 0.0 0.0 -0.0 0.0 0.0 1.48974e-13 -4.93662e-15 -3.37838e-13 72.3554 25.9007 3.74708 -19.3507 -12.2155 37.1286 -0.00252855 1.40422 0.197392 1.35458e-09 -5.4593e-09 -1.23538e-09 2.34461e-09 -9.45319e-09 -2.14484e-09 1.35458e-09 -5.45929e-09 -1.23539e-09 7.73091 5.47488 0.417314 1.35457e-09 -5.45929e-09 -1.23538e-09 2.90554 0.965183 0.102902 1.35458e-09 -5.45929e-09 -1.23537e-09 10.2786 0.731801 0.0259123 1.35457e-09 -5.45929e-09 -1.23537e-09 2.22167 -0.733487 -0.20892 1.48974e-13 -4.92793e-15 -3.38061e-13 -75.003 17.2268 9.31415 15.9444 -8.63532 -29.5562 1.00735 -27.2571 4.15227 -2.50285e-09 -1.36184e-09 -1.96267e-09 -4.27406e-09 -2.27501e-09 -3.45134e-09 -2.50285e-09 -1.36183e-09 -1.96267e-09 -7.73091 5.47488 -0.417314 -2.50284e-09 -1.36184e-09 -1.96267e-09 -2.90554 0.965183 -0.102902 -2.50285e-09 -1.36184e-09 -1.96267e-09 -10.2786 0.731801 -0.0259123 -2.50284e-09 -1.36183e-09 -1.96268e-09 -2.22167 -0.733487 0.20892 -2.03217e-16 0.0 -3.88251e-19 3.90113 8.18296 -0.296654 -0.0611677 21.0494 0.636601 -12.3009 -20.9682 -25.7552 2.03217e-16 0.0 3.88251e-19 15.1399 -32.1894 20.1849 1.16499 61.19 -1.50312 -0.815964 -6.47616 -5.89884
-54.8109 85.5817 -34.5442 -363.457 -15.1491 355.243 10.403 4.36916 -2.91779 -1.0598 3.72353 -0.790301 2.26266 31.3431 -5.51877 -4.84044 -44.6796 -12.2657 -0.0 0.0 0.0 -0.0 0.0 0.0 1.68296e-13 9.95136e-14 -1.32046e-13 72.0656 26.2056 4.43888 -19.3293 -12.1903 37.0771 -0.00228629 1.32915 0.186835 2.70855e-10 -2.65885e-09 -1.12455e-09 4.70119e-10 -4.60767e-09 -1.94976e-09 2.70858e-10 -2.65885e-09 -1.12456e-09 7.73091 5.47488 0.417314 2.70852e-10 -2.65885e-09 -1.12455e-09 2.90554 0.965183 0.102902 2.7086e-10 -2.65885e-09 -1.12455e-09 10.2786 0.731801 0.0259123 2.70854e-10 -2.65885e-09 -1.12454e-09 2.22167 -0.733487 -0.20892 1.68255e-13 9.95285e-14 -1.3225e-13 -75.0357 16.9366 9.37451 15.9156 -8.6086 -29.4956 1.0204 -27.4161 4.18066 -1.85278e-09 -9.9147e-10 -8.73284e-10 -3.17415e-09 -1.67025e-09 -1.55323e-09 -1.85278e-09 -9.91467e-10 -8.73279e-10 -7.73091 5.47488 -0.417314 -1.85278e-09 -9.91469e-10 -8.73284e-10 -2.90554 0.965183 -0.102902 -1.85278e-09 -9.91469e-10 -8.73284e-10 -10.2786 0.731801 -0.0259123 -1.85278e-09 -9.91467e-10 -8.73293e-10 -2.22167 -0.733487 0.20892 -2.03217e-16 0.0 -3.88251e-19 3.93131 8.57776 -0.51512 -0.0673525 20.8081 0.619562 -12.0927 -20.7765 -25.3911 2.03217e-16 0.0 3.88251e-19 14.7136 -32.4918 20.1563 1.00399 58.5272 -1.29452 -0.851451 -6.81782 -5.89134
-55.0674 85.5441 -34.007 -363.656 -15.1742 355.442 10.1998 4.4837 -2.78315 -1.15699 3.93332 -0.761559 2.16887 31.4497 -5.99244 -4.19374 -45.3591 -13.0163 -0.0 0.0 0.0 -0.0 0.0 0.0 1.65477e-13 1.53254e-13 9.64106e-15 71.7673 26.627 5.09636 -19.3445 -12.2091 37.1115 -0.00173769 1.1902 0.167296 -3.99156e-10 -7.91821e-10 -9.7262e-10 -6.88786e-10 -1.37669e-09 -1.68451e-09 -3.99155e-10 -7.91818e-10 -9.72623e-10 7.73091 5.47488 0.417314 -3.99159e-10 -7.91815e-10 -9.72614e-10 2.90554 0.965183 0.102902 -3.99148e-10 -7.91814e-10 -9.72616e-10 10.2786 0.731801 0.0259123 -3.99156e-10 -7.91816e-10 -9.72607e-10 2.22167 -0.733487 -0.20892 1.65411e-13 1.53272e-13 9.44227e-15 -75.1129 16.7335 9.45818 15.9329 -8.62504 -29.5311 1.03937 -27.648 4.22211 -1.32767e-09 -7.32671e-10 -1.18288e-10 -2.28399e-09 -1.2488e-09 -2.35793e-10 -1.32767e-09 -7.32669e-10 -1.18285e-10 -7.73091 5.47488 -0.417314 -1.32767e-09 -7.3267e-10 -1.18288e-10 -2.90554 0.965183 -0.102902 -1.32767e-09 -7.32669e-10 -1.18288e-10 -10.2786 0.731801 -0.0259123 -1.32767e-09 -7.32669e-10 -1.18298e-10 -2.22167 -0.733487 0.20892 -2.03217e-16 0.0 -3.88251e-19 3.99248 8.87617 -0.745507 -0.074124 20.6614 0.600899 -11.8714 -20.583 -24.9977 2.03217e-16 0.0 3.88251e-19 14.3277 -32.744 19.993 0.867719 55.8736 -1.10837 -0.890982 -7.20223 -5.90783
-55.319 85.4929 -33.4866 -363.879 -15.2422 355.672 10.0553 4.58652 -2.69908 -1.25528 4.17408 -0.744114 2.06601 31.4611 -6.43688 -3.49873 -45.8125 -13.6741 -0.0 0.0 0.0 -0.0 0.0 0.0 1.25888e-13 1.26472e-13 7.10756e-14 71.4591 27.1676 5.72191 -19.3971 -12.2715 37.2371 -0.000960299 0.958388 0.134703 -4.7978e-10 -2.66252e-10 -7.59523e-10 -8.28118e-10 -4.6603e-10 -1.3147e-09 -4.79778e-10 -2.66248e-10 -7.59529e-10 7.73091 5.47488 0.417314 -4.79782e-10 -2.66247e-10 -7.59519e-10 2.90554 0.965183 0.102902 -4.7977e-10 -2.66246e-10 -7.5952e-10 10.2786 0.731801 0.0259123 -4.7978e-10 -2.66249e-10 -7.59511e-10 2.22167 -0.733487 -0.20892 1.25822e-13 1.26488e-13 7.0859e-14 -75.2561 16.6221 9.59062 16.009 -8.69601 -29.6909 1.06822 -27.9957 4.28457 -9.66696e-10 -6.70383e-10 1.9621e-10 -1.67009e-09 -1.15496e-09 3.16993e-10 -9.66698e-10 -6.70381e-10 1.96214e-10 -7.73091 5.47488 -0.417314 -9.66695e-10 -6.70382e-10 1.96211e-10 -2.90554 0.965183 -0.102902 -9.667e-10 -6.70381e-10 1.9621e-10 -10.2786 0.731801 -0.0259123 -9.66695e-10 -6.70381e-10 1.96201e-10 -2.22167 -0.733487 0.20892 -2.03217e-16 0.0 -3.88251e-19 4.07438 9.0548 -1.01817 -0.0815404 20.6289 0.579589 -11.616 -20.3803 -24.5373 2.03217e-16 0.0 3.88251e-19 13.9796 -32.9414 19.6973 0.747961 53.1789 -0.934324 -0.954004 -7.64747 -6.04378
-55.5724 85.4309 -32.9864 -364.163 -15.3613 355.945 9.94539 4.68453 -2.65544 -1.35067 4.45082 -0.735968 1.96181 31.4117 -6.8638 -2.74923 -46.1161 -14.2595 -0.0 0.0 0.0 -0.0 0.0 0.0 5.85278e-14 5.04858e-14 9.19628e-14 71.1248 27.8037 6.34905 -19.4681 -12.3556 37.4092 -0.000314428 0.655886 0.092179 -2.301e-10 -4.34469e-10 -4.78454e-10 -3.96111e-10 -7.55133e-10 -8.27874e-10 -2.30096e-10 -4.34466e-10 -4.78466e-10 7.73091 5.47488 0.417314 -2.30102e-10 -4.34467e-10 -4.78455e-10 2.90554 0.965183 0.102902 -2.30089e-10 -4.34466e-10 -4.78454e-10 10.2786 0.731801 0.0259123 -2.30101e-10 -4.34468e-10 -4.78445e-10 2.22167 -0.733487 -0.20892 5.84763e-14 5.04966e-14 9.17143e-14 -75.4513 16.5898 9.74196 16.1273 -8.80632 -29.9417 1.10513 -28.4278 4.36292 -6.37962e-10 -6.93129e-10 2.90411e-10 -1.10876e-09 -1.20274e-09 4.88605e-10 -6.37963e-10 -6.93127e-10 2.90417e-10 -7.73091 5.47488 -0.417314 -6.37961e-10 -6.93127e-10 2.90413e-10 -2.90554 0.965183 -0.102902 -6.37966e-10 -6.93127e-10 2.90412e-10 -10.2786 0.731801 -0.0259123 -6.37961e-10 -6.93128e-10 2.90404e-10 -2.22167 -0.733487 0.20892 -2.03217e-16 0.0 -3.88251e-19 4.16627 9.13153 -1.32699 -0.0898269 20.6983 0.554902 -11.3245 -20.1597 -24.0068 2.03217e-16 0.0 3.88251e-19 13.6567 -33.0607 19.2924 0.644599 50.4044 -0.770178 -1.04077 -8.13082 -6.28439
-55.8343 85.3638 -32.507 -364.521 -15.5339 356.258 9.86231 4.80482 -2.62007 -1.44261 4.71773 -0.728055 1.864 31.3293 -7.28267 -1.96829 -46.3151 -14.8058 -0.0 0.0 0.0 -0.0 0.0 0.0 -1.04393e-14 -3.11156e-14 7.88577e-14 70.7656 28.5469 6.95536 -19.5688 -12.4772 37.6494 -1.62048e-05 0.33131 0.0465606 1.48924e-10 -8.64104e-10 -1.79663e-10 2.59429e-10 -1.4964e-09 -3.10769e-10 1.48931e-10 -8.64101e-10 -1.79681e-10 7.73091 5.47488 0.417314 1.48923e-10 -8.64105e-10 -1.79669e-10 2.90554 0.965183 0.102902 1.48936e-10 -8.64104e-10 -1.79665e-10 10.2786 0.731801 0.0259123 1.48922e-10 -8.64106e-10 -1.79655e-10 2.22167 -0.733487 -0.20892 -1.04762e-14 -3.11103e-14 7.85774e-14 -75.6619 16.6358 9.87724 16.27 -8.94041 -30.2454 1.14427 -28.8715 4.44422 -3.52232e-10 -6.93392e-10 2.37902e-10 -6.18129e-10 -1.20695e-09 4.0541e-10 -3.52232e-10 -6.9339e-10 2.37909e-10 -7.73091 5.47488 -0.417314 -3.52231e-10 -6.9339e-10 2.37904e-10 -2.90554 0.965183 -0.102902 -3.52237e-10 -6.9339e-10 2.37903e-10 -10.2786 0.731801 -0.0259123 -3.52231e-10 -6.93392e-10 2.37897e-10 -2.22167 -0.733487 0.20892 -2.03217e-16 0.0 -3.88251e-19 4.29499 9.14547 -1.60759 -0.0982886 20.8344 0.529531 -11.0475 -19.9429 -23.4944 2.03217e-16 0.0 3.88251e-19 13.3723 -33.1264 18.753 0.56013 47.6925 -0.622918 -1.11011 -8.62834 -6.4267
